<?xml version="1.0" encoding="utf-8"?>
<!-- Generator: Adobe Illustrator 19.0.0, SVG Export Plug-In . SVG Version: 6.00 Build 0)  -->
<svg version="1.1" id="Layer_1" xmlns="http://www.w3.org/2000/svg" xmlns:xlink="http://www.w3.org/1999/xlink" x="0px" y="0px"
	 viewBox="344.7 4.5 60.6 15.1" style="enable-background:new 344.7 4.5 60.6 15.1;" xml:space="preserve">
<style type="text/css">
	.st0{fill:#FFFFFF;}
</style>
<title>logo/algolia/mono-white</title>
<desc>Created with Sketch.</desc>
<path class="st0" d="M346.7,4.5h11c1.1,0,2,0.9,2,2v11.1c0,1.1-0.9,2-2,2h-11c-1.1,0-2-0.9-2-2V6.5C344.7,5.4,345.6,4.5,346.7,4.5z
	 M352.4,8.3c-2.3,0-4.2,1.9-4.2,4.2s1.9,4.2,4.2,4.2c2.3,0,4.2-1.9,4.2-4.2S354.7,8.3,352.4,8.3z M352.4,15.5c-1.6,0-3-1.3-3-3
	s1.3-3,3-3c1.6,0,3,1.3,3,3S354,15.5,352.4,15.5z M352.4,10.2v2.2c0,0.1,0.1,0.1,0.1,0.1l2-1c0,0,0.1-0.1,0-0.1
	C354.1,10.6,353.3,10.1,352.4,10.2C352.4,10.1,352.4,10.1,352.4,10.2L352.4,10.2z M349.6,8.6l-0.3-0.3c-0.3-0.3-0.7-0.3-0.9,0
	l-0.3,0.3c-0.3,0.3-0.3,0.7,0,0.9l0.3,0.3c0,0,0.1,0,0.1,0c0.2-0.2,0.3-0.4,0.5-0.6c0.2-0.2,0.4-0.4,0.6-0.5
	C349.6,8.7,349.6,8.6,349.6,8.6z M353.8,7.9V7.4c0-0.4-0.3-0.7-0.7-0.7h-1.5c-0.4,0-0.7,0.3-0.7,0.7v0.5c0,0.1,0.1,0.1,0.1,0.1
	c0.4-0.1,0.9-0.2,1.3-0.2c0.4,0,0.9,0.1,1.3,0.2C353.7,8,353.8,7.9,353.8,7.9L353.8,7.9z M382.2,16c0,1.2-0.3,2.1-0.9,2.7
	s-1.6,0.8-2.9,0.8c-0.5,0-1.4-0.1-2.2-0.3l0.3-1.4c0.7,0.1,1.5,0.2,2,0.2c0.7,0,1.2-0.1,1.5-0.4c0.3-0.3,0.5-0.7,0.5-1.3V16
	c-0.2,0.1-0.4,0.2-0.7,0.3c-0.3,0.1-0.6,0.1-1,0.1c-0.5,0-0.9-0.1-1.3-0.2c-0.4-0.2-0.8-0.4-1-0.7c-0.3-0.3-0.5-0.7-0.7-1.1
	c-0.2-0.5-0.2-1.3-0.2-1.8c0-0.6,0.1-1.3,0.3-1.7c0.2-0.5,0.4-0.9,0.8-1.2c0.3-0.3,0.7-0.6,1.2-0.8c0.5-0.2,1-0.3,1.6-0.3
	c0.6,0,1.1,0.1,1.6,0.2c0.5,0.1,1,0.2,1.3,0.3V16L382.2,16z M390.6,12.5c0,0.6-0.1,1.1-0.3,1.6c-0.2,0.5-0.4,0.9-0.8,1.3
	c-0.3,0.4-0.7,0.6-1.2,0.8c-0.5,0.2-1.2,0.3-1.5,0.3c-0.4,0-1-0.1-1.5-0.3c-0.5-0.2-0.8-0.5-1.2-0.8c-0.3-0.4-0.6-0.8-0.8-1.3
	c-0.2-0.5-0.3-1-0.3-1.6c0-0.6,0.1-1.2,0.3-1.7c0.2-0.5,0.4-0.9,0.8-1.3c0.3-0.4,0.7-0.6,1.2-0.8c0.5-0.2,0.9-0.3,1.5-0.3
	c0.5,0,1,0.1,1.5,0.3c0.5,0.2,0.8,0.5,1.2,0.8c0.3,0.4,0.6,0.8,0.8,1.3C390.6,11.3,390.6,11.9,390.6,12.5z M394.6,16.4
	c-2.9,0-2.9-2.4-2.9-2.7l0-8.4l1.8-0.3v8.4c0,0.2,0,1.6,1.1,1.6L394.6,16.4L394.6,16.4z M397.7,16.4H396V8.7l1.8-0.3V16.4
	L397.7,16.4z M396.8,7.6c0.6,0,1.1-0.5,1.1-1.1s-0.5-1.1-1.1-1.1s-1.1,0.5-1.1,1.1S396.3,7.6,396.8,7.6z M402.2,8.5
	c0.6,0,1.1,0.1,1.5,0.2c0.4,0.1,0.7,0.4,1,0.6c0.2,0.3,0.4,0.6,0.5,1c0.1,0.4,0.2,0.8,0.2,1.2v4.6c-0.3,0.1-0.7,0.1-1.2,0.2
	c-0.6,0.1-1.2,0.1-1.9,0.1c-0.5,0-0.9,0-1.3-0.1c-0.4-0.1-0.7-0.2-1-0.4c-0.3-0.2-0.5-0.4-0.6-0.8c-0.2-0.3-0.2-0.7-0.2-1.2
	c0-0.4,0.1-0.7,0.3-1c0.2-0.3,0.4-0.5,0.7-0.7c0.3-0.2,0.6-0.3,1-0.4c0.4-0.1,0.8-0.1,1.2-0.1c0.2,0,0.4,0,0.6,0
	c0.2,0,0.4,0.1,0.7,0.1v-0.3c0-0.2,0-0.4-0.1-0.6c-0.1-0.2-0.1-0.3-0.3-0.5c-0.1-0.1-0.3-0.3-0.5-0.3c-0.2-0.1-0.5-0.1-0.8-0.1
	c-0.4,0-0.8,0-1.1,0.1c-0.3,0.1-0.6,0.1-0.8,0.2l-0.2-1.5c0.2-0.1,0.6-0.2,1-0.2C401.2,8.5,401.7,8.5,402.2,8.5L402.2,8.5z
	 M367.2,8.5c0.6,0,1.1,0.1,1.5,0.2c0.4,0.1,0.7,0.4,1,0.6c0.2,0.3,0.4,0.6,0.5,1c0.1,0.4,0.2,0.8,0.2,1.2v4.6
	c-0.3,0.1-0.7,0.1-1.2,0.2s-1.2,0.1-1.9,0.1c-0.5,0-0.9,0-1.3-0.1c-0.4-0.1-0.7-0.2-1-0.4c-0.3-0.2-0.5-0.4-0.6-0.8
	c-0.2-0.3-0.2-0.7-0.2-1.2c0-0.4,0.1-0.7,0.3-1c0.2-0.3,0.4-0.5,0.7-0.7c0.3-0.2,0.6-0.3,1-0.4c0.4-0.1,0.8-0.1,1.2-0.1
	c0.2,0,0.4,0,0.6,0c0.2,0,0.4,0.1,0.7,0.1v-0.3c0-0.2,0-0.4-0.1-0.6c-0.1-0.2-0.1-0.3-0.3-0.5c-0.1-0.1-0.3-0.3-0.5-0.3
	c-0.2-0.1-0.5-0.1-0.8-0.1c-0.4,0-0.8,0-1.1,0.1s-0.6,0.1-0.8,0.2l-0.2-1.5c0.2-0.1,0.6-0.2,1-0.2C366.3,8.6,366.7,8.5,367.2,8.5
	L367.2,8.5z M374.6,16.4c-2.9,0-2.9-2.4-2.9-2.7l0-8.4l1.8-0.3v8.4c0,0.2,0,1.6,1.1,1.6L374.6,16.4L374.6,16.4z M402.3,14.9
	c0.5,0,1,0,1.2-0.1V13c-0.1,0-0.2-0.1-0.4-0.1c-0.2,0-0.4,0-0.6,0c-0.2,0-0.4,0-0.6,0c-0.2,0-0.4,0.1-0.5,0.2
	c-0.2,0.1-0.3,0.2-0.4,0.3c-0.1,0.1-0.1,0.2-0.1,0.4c0,0.4,0.1,0.7,0.4,0.8C401.5,14.8,401.9,14.9,402.3,14.9L402.3,14.9z
	 M388.8,12.5c0-0.8-0.2-1.4-0.5-1.9c-0.3-0.5-0.8-0.7-1.4-0.7s-1,0.2-1.4,0.7c-0.3,0.5-0.5,1.1-0.5,1.9c0,0.8,0.2,1.3,0.5,1.8
	c0.3,0.5,0.8,0.7,1.4,0.7c0.6,0,1-0.2,1.4-0.7C388.7,13.8,388.8,13.3,388.8,12.5z M377.3,12.5c0,0.7,0.2,1.6,0.5,1.9
	s0.8,0.5,1.3,0.5c0.3,0,0.6,0,0.8-0.1c0.3-0.1,0.5-0.2,0.6-0.3v-4.4c-0.1,0-0.7-0.1-1.2-0.2c-0.6,0-1.1,0.2-1.5,0.7
	C377.4,11.1,377.3,11.8,377.3,12.5L377.3,12.5z M367.4,15c0.5,0,1,0,1.2-0.1v-1.8c-0.1,0-0.2-0.1-0.4-0.1c-0.2,0-0.4,0-0.6,0
	c-0.2,0-0.4,0-0.6,0c-0.2,0-0.4,0.1-0.5,0.2c-0.2,0.1-0.3,0.2-0.4,0.3c-0.1,0.1-0.1,0.2-0.1,0.4c0,0.4,0.1,0.7,0.4,0.8
	C366.6,14.9,366.9,15,367.4,15L367.4,15z"/>
</svg>
