<?xml version="1.0" encoding="utf-8"?>
<!-- Generator: Adobe Illustrator 19.0.0, SVG Export Plug-In . SVG Version: 6.00 Build 0)  -->
<svg version="1.1" id="Layer_1" xmlns="http://www.w3.org/2000/svg" xmlns:xlink="http://www.w3.org/1999/xlink" x="0px" y="0px"
	 viewBox="0 0 20 25" style="enable-background:new 0 0 20 25;" xml:space="preserve">
<style type="text/css">
	.st0{fill:none;stroke:#FFFFFF;stroke-width:0.8848;stroke-miterlimit:10;}
	.st1{fill:none;stroke:#FFFFFF;stroke-width:0.8768;stroke-miterlimit:10;}
</style>
<circle id="XMLID_3_" class="st0" cx="3.4" cy="6.6" r="2.9"/>
<path id="XMLID_1_" class="st1" d="M3.4,23.8L3.4,23.8c0.8,0,1.4-0.6,1.4-1.4V2.7c0-0.8-0.6-1.4-1.4-1.4h0C2.6,1.3,2,1.9,2,2.7v19.7
	C2,23.1,2.6,23.8,3.4,23.8z"/>
<g id="XMLID_5_">
	<circle id="XMLID_36_" class="st0" cx="10" cy="18.4" r="2.9"/>
	<path id="XMLID_34_" class="st1" d="M10,1.3L10,1.3c-0.8,0-1.4,0.6-1.4,1.4v19.7c0,0.8,0.6,1.4,1.4,1.4h0c0.8,0,1.4-0.6,1.4-1.4
		V2.7C11.4,1.9,10.8,1.3,10,1.3z"/>
</g>
<g id="XMLID_35_">
	<circle id="XMLID_76_" class="st0" cx="16.6" cy="6.6" r="2.9"/>
	<path id="XMLID_64_" class="st1" d="M16.6,23.8L16.6,23.8c0.8,0,1.4-0.6,1.4-1.4V2.7c0-0.8-0.6-1.4-1.4-1.4h0
		c-0.8,0-1.4,0.6-1.4,1.4v19.7C15.2,23.1,15.8,23.8,16.6,23.8z"/>
</g>
</svg>
